<svg width="54" height="54" viewBox="0 0 54 54" fill="none" xmlns="http://www.w3.org/2000/svg">
<rect width="54" height="54" fill="#FAF9F9"/>
<path d="M1.56519 21.538V8.16202L4.83802 4.88918H14.7419L17.9578 8.1051V11.1503H14.0873V9.52807L12.7498 8.19048H6.8871L5.43567 9.64191V20.0581L6.8871 21.5095H12.8067L14.2012 20.115V17.0129H9.93227V13.7116H17.9578V21.538L14.685 24.8108H4.83802L1.56519 21.538Z" fill="url(#paint0_linear_13:86)"/>
<path d="M21.9359 7.67821V5.8568L23.2451 4.54767H25.2372L26.5464 5.8568V7.67821L25.2372 8.98734H23.2451L21.9359 7.67821ZM22.3628 10.638H26.1195V24.8108H22.3628V10.638Z" fill="url(#paint1_linear_13:86)"/>
<path d="M32.2514 13.797H29.69V10.638H32.2514V7.82051L35.1258 4.9461H40.3623V8.04818H36.748L35.9511 8.84505V10.638H40.3623V13.797H36.008V24.8108H32.2514V13.797Z" fill="url(#paint2_linear_13:86)"/>
<path d="M1.23315 30.0027H0.733154V30.5027V43.7838V44.2838H1.23315H3.81348H4.31348V43.7838V39.7682H9.54332H9.75177L9.8985 39.6201L11.9476 37.5521L12.0924 37.4059V37.2001V32.5518V32.346L11.9476 32.1999L9.91748 30.1508L9.77076 30.0027H9.56229H1.23315ZM12.8966 42.0383V42.2454L13.0431 42.3918L14.7886 44.1373L14.935 44.2838H15.1421H18.747H18.9481L19.0932 44.1446L19.651 43.6093V43.7838V44.2838H20.151H22.4088H22.9088V43.7838V36.3843V36.1786L22.764 36.0324L20.7339 33.9833L20.5871 33.8352H20.3787H15.5026H15.2941L15.1474 33.9833L13.1173 36.0324L12.9725 36.1786V36.3843V37.4658V37.9658H13.4725H14.5991L13.0431 39.5218L12.8966 39.6682V39.8753V42.0383ZM16.439 37.4658V37.1368L16.7201 36.8464H19.147L19.4423 37.1416V37.6298H16.439V37.4658ZM25.3533 33.8352H24.8533V34.3352V43.7838V44.2838H25.3533H27.8577H28.3577V43.7838V38.5602L29.9097 36.9602H31.88H32.38V36.4602V34.3352V33.8352H31.88H29.1858H28.9733L28.8258 33.9882L28.168 34.6707V34.3352V33.8352H27.668H25.3533ZM34.2293 41.8485V42.0571L34.3775 42.2038L36.3317 44.139L36.4779 44.2838H36.6836H40.1177H40.6177V43.7838V41.6588V41.1588H40.1177H38.0816L37.7338 40.8212V36.9602H40.1177H40.6177V36.4602V34.3352V33.8352H40.1177H37.7338V31.2616V30.7616H37.2338H34.7673H34.2673V31.2616V33.8352H33.0218H32.5218V34.3352V36.4412V36.9412H33.0218H34.2293V41.8485ZM51.8721 34.3352V33.8352H51.3721H48.8676H48.3676V34.3352V39.5825L46.8868 41.1588H45.6639L45.3074 40.7919V34.3352V33.8352H44.8074H42.303H41.803V34.3352V41.7347V41.9404L41.9478 42.0866L43.9779 44.1357L44.1246 44.2838H44.3331H47.4636H47.6707L47.8172 44.1373L48.3676 43.5869V45.0228L48.0112 45.3898H45.6671L45.592 45.3107V44.9411V44.4411H45.092H42.5876H42.0876V44.9411V46.2313V46.44L42.2359 46.5867L44.0004 48.3323L44.1465 48.4768H44.3521H49.323H49.5287L49.6749 48.332L51.724 46.3019L51.8721 46.1552V45.9467V34.3352ZM8.55002 36.2341L8.17886 36.6053H4.31348V33.1656H8.17886L8.55002 33.5368V36.2341ZM16.5825 40.4133H19.3512L18.3753 41.3485H16.5445L16.3631 41.1671V40.6327L16.5825 40.4133Z" fill="#0A0102" stroke="url(#paint3_linear_13:86)"/>
<defs>
<linearGradient id="paint0_linear_13:86" x1="3.28368" y1="22.6216" x2="45.608" y2="5.83783" gradientUnits="userSpaceOnUse">
<stop stop-color="#82A0D5"/>
<stop offset="0.0909091" stop-color="#7F88D9"/>
<stop offset="0.181818" stop-color="#8D7CDD"/>
<stop offset="0.272727" stop-color="#A779E1"/>
<stop offset="0.363636" stop-color="#C476E5"/>
<stop offset="0.454545" stop-color="#E573E9"/>
<stop offset="0.545455" stop-color="#ED70CF"/>
<stop offset="0.636364" stop-color="#F06EAE"/>
<stop offset="0.727273" stop-color="#F46B8A"/>
<stop offset="0.818182" stop-color="#F86E68"/>
<stop offset="0.909091" stop-color="#FB9366"/>
<stop offset="1" stop-color="#FFBC63"/>
</linearGradient>
<linearGradient id="paint1_linear_13:86" x1="3.28368" y1="22.6216" x2="45.608" y2="5.83783" gradientUnits="userSpaceOnUse">
<stop stop-color="#82A0D5"/>
<stop offset="0.0909091" stop-color="#7F88D9"/>
<stop offset="0.181818" stop-color="#8D7CDD"/>
<stop offset="0.272727" stop-color="#A779E1"/>
<stop offset="0.363636" stop-color="#C476E5"/>
<stop offset="0.454545" stop-color="#E573E9"/>
<stop offset="0.545455" stop-color="#ED70CF"/>
<stop offset="0.636364" stop-color="#F06EAE"/>
<stop offset="0.727273" stop-color="#F46B8A"/>
<stop offset="0.818182" stop-color="#F86E68"/>
<stop offset="0.909091" stop-color="#FB9366"/>
<stop offset="1" stop-color="#FFBC63"/>
</linearGradient>
<linearGradient id="paint2_linear_13:86" x1="3.28368" y1="22.6216" x2="45.608" y2="5.83783" gradientUnits="userSpaceOnUse">
<stop stop-color="#82A0D5"/>
<stop offset="0.0909091" stop-color="#7F88D9"/>
<stop offset="0.181818" stop-color="#8D7CDD"/>
<stop offset="0.272727" stop-color="#A779E1"/>
<stop offset="0.363636" stop-color="#C476E5"/>
<stop offset="0.454545" stop-color="#E573E9"/>
<stop offset="0.545455" stop-color="#ED70CF"/>
<stop offset="0.636364" stop-color="#F06EAE"/>
<stop offset="0.727273" stop-color="#F46B8A"/>
<stop offset="0.818182" stop-color="#F86E68"/>
<stop offset="0.909091" stop-color="#FB9366"/>
<stop offset="1" stop-color="#FFBC63"/>
</linearGradient>
<linearGradient id="paint3_linear_13:86" x1="1.23315" y1="39.2397" x2="51.3721" y2="39.2397" gradientUnits="userSpaceOnUse">
<stop stop-color="#82A0D5"/>
<stop offset="0.111111" stop-color="#9E9EDB"/>
<stop offset="0.222222" stop-color="#BB9BDA"/>
<stop offset="0.333333" stop-color="#D798D2"/>
<stop offset="0.444444" stop-color="#F095C5"/>
<stop offset="0.555556" stop-color="#FF95B2"/>
<stop offset="0.666667" stop-color="#FF999D"/>
<stop offset="0.777778" stop-color="#FFA187"/>
<stop offset="0.888889" stop-color="#FFAD73"/>
<stop offset="1" stop-color="#FFBC63"/>
</linearGradient>
</defs>
</svg>
