<svg width="74" height="74" viewBox="0 0 74 74" fill="none" xmlns="http://www.w3.org/2000/svg">
<rect width="74" height="74" fill="#FAF9F9"/>
<path d="M2.14502 29.515V11.185L6.63002 6.69999H20.202L24.609 11.107V15.28H19.305V13.057L17.472 11.224H9.43802L7.44902 13.213V27.487L9.43802 29.476H17.55L19.461 27.565V23.314H13.611V18.79H24.609V29.515L20.124 34H6.63002L2.14502 29.515Z" fill="url(#paint0_linear_13:95)"/>
<path d="M30.0605 10.522V8.02599L31.8545 6.23199H34.5845L36.3785 8.02599V10.522L34.5845 12.316H31.8545L30.0605 10.522ZM30.6455 14.578H35.7935V34H30.6455V14.578Z" fill="url(#paint1_linear_13:95)"/>
<path d="M44.1965 18.907H40.6865V14.578H44.1965V10.717L48.1355 6.77799H55.3115V11.029H50.3585L49.2665 12.121V14.578H55.3115V18.907H49.3445V34H44.1965V18.907Z" fill="url(#paint2_linear_13:95)"/>
<path d="M1.68994 41.3H1.18994V41.8V60V60.5H1.68994H5.22594H5.72594V60V54.312H13.0779H13.2864L13.4331 54.1639L16.2411 51.3299L16.3859 51.1837V50.978V44.608V44.4022L16.2411 44.2561L13.4591 41.4481L13.3124 41.3H13.1039H1.68994ZM17.8584 57.608V57.8151L18.0048 57.9615L20.3968 60.3535L20.5433 60.5H20.7504H25.6904H25.8915L26.0365 60.3608L27.1144 59.3266V60V60.5H27.6144H30.7084H31.2084V60V49.86V49.6542L31.0636 49.5081L28.2816 46.7001L28.1348 46.552H27.9264H21.2444H21.0359L20.8892 46.7001L18.1072 49.5081L17.9624 49.6542V49.86V51.342V51.842H18.4624H20.4533L20.3968 51.8984L18.0048 54.2904L17.8584 54.4369V54.644V57.608ZM22.3424 51.342V50.8163L22.8343 50.308H26.3153L26.8284 50.8211V51.752H22.3424V51.342ZM34.7435 46.552H34.2435V47.052V60V60.5H34.7435H38.1755H38.6755V60V52.7666L40.909 50.464H43.6875H44.1875V49.964V47.052V46.552H43.6875H39.9955H39.7829L39.6355 46.705L38.4155 47.9708V47.052V46.552H37.9155H34.7435ZM47.0921 57.348V57.5565L47.2403 57.7033L49.9183 60.3553L50.0644 60.5H50.2701H54.9761H55.4761V60V57.088V56.588H54.9761H52.1109L51.5241 56.0185V50.464H54.9761H55.4761V49.964V47.052V46.552H54.9761H51.5241V42.84V42.34H51.0241H47.6441H47.1441V42.84V46.552H45.2521H44.7521V47.052V49.938V50.438H45.2521H47.0921V57.348ZM70.8988 47.052V46.552H70.3988H66.9668H66.4668V47.052V54.316L64.3325 56.588H62.4982L61.9028 55.9751V47.052V46.552H61.4028H57.9708H57.4708V47.052V57.192V57.3977L57.6156 57.5439L60.3976 60.3519L60.5443 60.5H60.7528H65.0428H65.2499L65.3964 60.3535L66.4668 59.2831V61.7731L65.8714 62.386H62.5015L62.2928 62.1664V61.586V61.086H61.7928H58.3608H57.8608V61.586V63.354V63.5627L58.0092 63.7094L60.4272 66.1014L60.5733 66.246H60.7788H67.5908H67.7965L67.9427 66.1012L70.7507 63.3192L70.8988 63.1725V62.964V47.052ZM11.9019 49.7309L11.2848 50.348H5.72594V45.264H11.2848L11.9019 45.8811V49.7309ZM26.8284 55.3406L25.2555 56.848H22.5955L22.2384 56.4909V55.6051L22.6475 55.196H26.8284V55.3406Z" fill="#0A0102" stroke="url(#paint3_linear_13:95)"/>
<defs>
<linearGradient id="paint0_linear_13:95" x1="4.5" y1="31" x2="62.5" y2="8" gradientUnits="userSpaceOnUse">
<stop stop-color="#82A0D5"/>
<stop offset="0.0909091" stop-color="#7F88D9"/>
<stop offset="0.181818" stop-color="#8D7CDD"/>
<stop offset="0.272727" stop-color="#A779E1"/>
<stop offset="0.363636" stop-color="#C476E5"/>
<stop offset="0.454545" stop-color="#E573E9"/>
<stop offset="0.545455" stop-color="#ED70CF"/>
<stop offset="0.636364" stop-color="#F06EAE"/>
<stop offset="0.727273" stop-color="#F46B8A"/>
<stop offset="0.818182" stop-color="#F86E68"/>
<stop offset="0.909091" stop-color="#FB9366"/>
<stop offset="1" stop-color="#FFBC63"/>
</linearGradient>
<linearGradient id="paint1_linear_13:95" x1="4.5" y1="31" x2="62.5" y2="8" gradientUnits="userSpaceOnUse">
<stop stop-color="#82A0D5"/>
<stop offset="0.0909091" stop-color="#7F88D9"/>
<stop offset="0.181818" stop-color="#8D7CDD"/>
<stop offset="0.272727" stop-color="#A779E1"/>
<stop offset="0.363636" stop-color="#C476E5"/>
<stop offset="0.454545" stop-color="#E573E9"/>
<stop offset="0.545455" stop-color="#ED70CF"/>
<stop offset="0.636364" stop-color="#F06EAE"/>
<stop offset="0.727273" stop-color="#F46B8A"/>
<stop offset="0.818182" stop-color="#F86E68"/>
<stop offset="0.909091" stop-color="#FB9366"/>
<stop offset="1" stop-color="#FFBC63"/>
</linearGradient>
<linearGradient id="paint2_linear_13:95" x1="4.5" y1="31" x2="62.5" y2="8" gradientUnits="userSpaceOnUse">
<stop stop-color="#82A0D5"/>
<stop offset="0.0909091" stop-color="#7F88D9"/>
<stop offset="0.181818" stop-color="#8D7CDD"/>
<stop offset="0.272727" stop-color="#A779E1"/>
<stop offset="0.363636" stop-color="#C476E5"/>
<stop offset="0.454545" stop-color="#E573E9"/>
<stop offset="0.545455" stop-color="#ED70CF"/>
<stop offset="0.636364" stop-color="#F06EAE"/>
<stop offset="0.727273" stop-color="#F46B8A"/>
<stop offset="0.818182" stop-color="#F86E68"/>
<stop offset="0.909091" stop-color="#FB9366"/>
<stop offset="1" stop-color="#FFBC63"/>
</linearGradient>
<linearGradient id="paint3_linear_13:95" x1="1.68994" y1="53.773" x2="70.3988" y2="53.773" gradientUnits="userSpaceOnUse">
<stop stop-color="#82A0D5"/>
<stop offset="0.111111" stop-color="#9E9EDB"/>
<stop offset="0.222222" stop-color="#BB9BDA"/>
<stop offset="0.333333" stop-color="#D798D2"/>
<stop offset="0.444444" stop-color="#F095C5"/>
<stop offset="0.555556" stop-color="#FF95B2"/>
<stop offset="0.666667" stop-color="#FF999D"/>
<stop offset="0.777778" stop-color="#FFA187"/>
<stop offset="0.888889" stop-color="#FFAD73"/>
<stop offset="1" stop-color="#FFBC63"/>
</linearGradient>
</defs>
</svg>
