<svg width="54" height="54" viewBox="0 0 54 54" fill="none" xmlns="http://www.w3.org/2000/svg">
<path d="M1.56531 21.538V8.16202L4.83815 4.88918H14.742L17.958 8.1051V11.1503H14.0875V9.52807L12.7499 8.19048H6.88723L5.43579 9.64191V20.0581L6.88723 21.5095H12.8068L14.2013 20.115V17.0129H9.93239V13.7116H17.958V21.538L14.6851 24.8108H4.83815L1.56531 21.538Z" fill="url(#paint0_linear_13:86)"/>
<path d="M21.9361 7.67821V5.8568L23.2452 4.54767H25.2374L26.5465 5.8568V7.67821L25.2374 8.98734H23.2452L21.9361 7.67821ZM22.3629 10.638H26.1196V24.8108H22.3629V10.638Z" fill="url(#paint1_linear_13:86)"/>
<path d="M32.2515 13.797H29.6901V10.638H32.2515V7.82051L35.1259 4.9461H40.3624V8.04818H36.7481L35.9512 8.84505V10.638H40.3624V13.797H36.0081V24.8108H32.2515V13.797Z" fill="url(#paint2_linear_13:86)"/>
<path d="M1.23328 30.0027H0.733276V30.5027V43.7838V44.2838H1.23328H3.8136H4.3136V43.7838V39.7682H9.54344H9.7519L9.89862 39.6201L11.9477 37.5521L12.0925 37.4059V37.2001V32.5518V32.346L11.9477 32.1999L9.91761 30.1508L9.77088 30.0027H9.56241H1.23328ZM12.8967 42.0383V42.2454L13.0432 42.3918L14.7887 44.1373L14.9351 44.2838H15.1422H18.7471H18.9482L19.0933 44.1446L19.6511 43.6093V43.7838V44.2838H20.1511H22.4089H22.9089V43.7838V36.3843V36.1786L22.7641 36.0324L20.734 33.9833L20.5873 33.8352H20.3788H15.5027H15.2943L15.1475 33.9833L13.1174 36.0324L12.9726 36.1786V36.3843V37.4658V37.9658H13.4726H14.5992L13.0432 39.5218L12.8967 39.6682V39.8753V42.0383ZM16.4391 37.4658V37.1368L16.7202 36.8464H19.1471L19.4424 37.1416V37.6298H16.4391V37.4658ZM25.3534 33.8352H24.8534V34.3352V43.7838V44.2838H25.3534H27.8578H28.3578V43.7838V38.5602L29.9098 36.9602H31.8801H32.3801V36.4602V34.3352V33.8352H31.8801H29.186H28.9734L28.826 33.9882L28.1681 34.6707V34.3352V33.8352H27.6681H25.3534ZM34.2295 41.8485V42.0571L34.3776 42.2038L36.3319 44.139L36.478 44.2838H36.6837H40.1178H40.6178V43.7838V41.6588V41.1588H40.1178H38.0817L37.7339 40.8212V36.9602H40.1178H40.6178V36.4602V34.3352V33.8352H40.1178H37.7339V31.2616V30.7616H37.2339H34.7674H34.2674V31.2616V33.8352H33.0219H32.5219V34.3352V36.4412V36.9412H33.0219H34.2295V41.8485ZM51.8722 34.3352V33.8352H51.3722H48.8677H48.3677V34.3352V39.5825L46.8869 41.1588H45.664L45.3075 40.7919V34.3352V33.8352H44.8075H42.3031H41.8031V34.3352V41.7347V41.9404L41.9479 42.0866L43.978 44.1357L44.1247 44.2838H44.3332H47.4637H47.6709L47.8173 44.1373L48.3677 43.5869V45.0228L48.0113 45.3898H45.6673L45.5921 45.3107V44.9411V44.4411H45.0921H42.5877H42.0877V44.9411V46.2313V46.44L42.236 46.5867L44.0005 48.3323L44.1467 48.4768H44.3522H49.3231H49.5288L49.675 48.332L51.7241 46.3019L51.8722 46.1552V45.9467V34.3352ZM8.55014 36.2341L8.17898 36.6053H4.3136V33.1656H8.17898L8.55014 33.5368V36.2341ZM16.5826 40.4133H19.3514L18.3755 41.3485H16.5447L16.3632 41.1671V40.6327L16.5826 40.4133Z" fill="#0A0102" stroke="url(#paint3_linear_13:86)"/>
<defs>
<linearGradient id="paint0_linear_13:86" x1="3.28381" y1="22.6216" x2="45.6081" y2="5.83783" gradientUnits="userSpaceOnUse">
<stop stop-color="#82A0D5"/>
<stop offset="0.0909091" stop-color="#7F88D9"/>
<stop offset="0.181818" stop-color="#8D7CDD"/>
<stop offset="0.272727" stop-color="#A779E1"/>
<stop offset="0.363636" stop-color="#C476E5"/>
<stop offset="0.454545" stop-color="#E573E9"/>
<stop offset="0.545455" stop-color="#ED70CF"/>
<stop offset="0.636364" stop-color="#F06EAE"/>
<stop offset="0.727273" stop-color="#F46B8A"/>
<stop offset="0.818182" stop-color="#F86E68"/>
<stop offset="0.909091" stop-color="#FB9366"/>
<stop offset="1" stop-color="#FFBC63"/>
</linearGradient>
<linearGradient id="paint1_linear_13:86" x1="3.28381" y1="22.6216" x2="45.6081" y2="5.83783" gradientUnits="userSpaceOnUse">
<stop stop-color="#82A0D5"/>
<stop offset="0.0909091" stop-color="#7F88D9"/>
<stop offset="0.181818" stop-color="#8D7CDD"/>
<stop offset="0.272727" stop-color="#A779E1"/>
<stop offset="0.363636" stop-color="#C476E5"/>
<stop offset="0.454545" stop-color="#E573E9"/>
<stop offset="0.545455" stop-color="#ED70CF"/>
<stop offset="0.636364" stop-color="#F06EAE"/>
<stop offset="0.727273" stop-color="#F46B8A"/>
<stop offset="0.818182" stop-color="#F86E68"/>
<stop offset="0.909091" stop-color="#FB9366"/>
<stop offset="1" stop-color="#FFBC63"/>
</linearGradient>
<linearGradient id="paint2_linear_13:86" x1="3.28381" y1="22.6216" x2="45.6081" y2="5.83783" gradientUnits="userSpaceOnUse">
<stop stop-color="#82A0D5"/>
<stop offset="0.0909091" stop-color="#7F88D9"/>
<stop offset="0.181818" stop-color="#8D7CDD"/>
<stop offset="0.272727" stop-color="#A779E1"/>
<stop offset="0.363636" stop-color="#C476E5"/>
<stop offset="0.454545" stop-color="#E573E9"/>
<stop offset="0.545455" stop-color="#ED70CF"/>
<stop offset="0.636364" stop-color="#F06EAE"/>
<stop offset="0.727273" stop-color="#F46B8A"/>
<stop offset="0.818182" stop-color="#F86E68"/>
<stop offset="0.909091" stop-color="#FB9366"/>
<stop offset="1" stop-color="#FFBC63"/>
</linearGradient>
<linearGradient id="paint3_linear_13:86" x1="1.23328" y1="39.2397" x2="51.3722" y2="39.2397" gradientUnits="userSpaceOnUse">
<stop stop-color="#82A0D5"/>
<stop offset="0.111111" stop-color="#9E9EDB"/>
<stop offset="0.222222" stop-color="#BB9BDA"/>
<stop offset="0.333333" stop-color="#D798D2"/>
<stop offset="0.444444" stop-color="#F095C5"/>
<stop offset="0.555556" stop-color="#FF95B2"/>
<stop offset="0.666667" stop-color="#FF999D"/>
<stop offset="0.777778" stop-color="#FFA187"/>
<stop offset="0.888889" stop-color="#FFAD73"/>
<stop offset="1" stop-color="#FFBC63"/>
</linearGradient>
</defs>
</svg>
