<svg width="24" height="24" viewBox="0 0 24 24" fill="none" xmlns="http://www.w3.org/2000/svg">
<path d="M21 11.5C21 16.75 16.75 21 11.5 21C6.25 21 2 16.75 2 11.5C2 6.25 6.25 2 11.5 2" stroke="url(#paint0_linear_13:140)" stroke-width="1.5" stroke-linecap="round" stroke-linejoin="round"/>
<path d="M22 22L20 20" stroke="url(#paint1_linear_13:140)" stroke-width="1.5" stroke-linecap="round" stroke-linejoin="round"/>
<path d="M14.4999 6.12996C14.1499 5.02996 14.5599 3.65996 15.7199 3.28996C16.3299 3.08996 17.0799 3.25996 17.5099 3.84996C17.9099 3.23996 18.6899 3.09996 19.2899 3.28996C20.4499 3.65996 20.8599 5.02996 20.5099 6.12996C19.9599 7.87996 18.0399 8.78996 17.5099 8.78996C16.9699 8.78996 15.0699 7.89996 14.4999 6.12996Z" stroke="url(#paint2_linear_13:140)" stroke-width="1.5" stroke-linecap="round" stroke-linejoin="round"/>
<defs>
<linearGradient id="paint0_linear_13:140" x1="2.8416" y1="18.9473" x2="25.8418" y2="14.1836" gradientUnits="userSpaceOnUse">
<stop stop-color="#82A0D5"/>
<stop offset="0.0909091" stop-color="#7F88D9"/>
<stop offset="0.181818" stop-color="#8D7CDD"/>
<stop offset="0.272727" stop-color="#A779E1"/>
<stop offset="0.363636" stop-color="#C476E5"/>
<stop offset="0.454545" stop-color="#E573E9"/>
<stop offset="0.545455" stop-color="#ED70CF"/>
<stop offset="0.636364" stop-color="#F06EAE"/>
<stop offset="0.727273" stop-color="#F46B8A"/>
<stop offset="0.818182" stop-color="#F86E68"/>
<stop offset="0.909091" stop-color="#FB9366"/>
<stop offset="1" stop-color="#FFBC63"/>
</linearGradient>
<linearGradient id="paint1_linear_13:140" x1="20.0886" y1="21.7839" x2="22.5097" y2="21.2825" gradientUnits="userSpaceOnUse">
<stop stop-color="#82A0D5"/>
<stop offset="0.0909091" stop-color="#7F88D9"/>
<stop offset="0.181818" stop-color="#8D7CDD"/>
<stop offset="0.272727" stop-color="#A779E1"/>
<stop offset="0.363636" stop-color="#C476E5"/>
<stop offset="0.454545" stop-color="#E573E9"/>
<stop offset="0.545455" stop-color="#ED70CF"/>
<stop offset="0.636364" stop-color="#F06EAE"/>
<stop offset="0.727273" stop-color="#F46B8A"/>
<stop offset="0.818182" stop-color="#F86E68"/>
<stop offset="0.909091" stop-color="#FB9366"/>
<stop offset="1" stop-color="#FFBC63"/>
</linearGradient>
<linearGradient id="paint2_linear_13:140" x1="14.6558" y1="8.18709" x2="22.1455" y2="6.44911" gradientUnits="userSpaceOnUse">
<stop stop-color="#82A0D5"/>
<stop offset="0.0909091" stop-color="#7F88D9"/>
<stop offset="0.181818" stop-color="#8D7CDD"/>
<stop offset="0.272727" stop-color="#A779E1"/>
<stop offset="0.363636" stop-color="#C476E5"/>
<stop offset="0.454545" stop-color="#E573E9"/>
<stop offset="0.545455" stop-color="#ED70CF"/>
<stop offset="0.636364" stop-color="#F06EAE"/>
<stop offset="0.727273" stop-color="#F46B8A"/>
<stop offset="0.818182" stop-color="#F86E68"/>
<stop offset="0.909091" stop-color="#FB9366"/>
<stop offset="1" stop-color="#FFBC63"/>
</linearGradient>
</defs>
</svg>
