<svg width="40" height="40" viewBox="0 0 40 40" fill="none" xmlns="http://www.w3.org/2000/svg">
<path fill-rule="evenodd" clip-rule="evenodd" d="M20 2.57504C9.90833 2.57504 1.73833 10.7034 1.73833 20.7134C1.73833 28.0634 6.14333 34.3884 12.4833 37.2334C13.1467 37.5317 13.795 37.4134 14.3017 37.0334C14.5819 36.8152 14.8077 36.535 14.9616 36.215C15.1154 35.8949 15.193 35.5435 15.1883 35.1884V34.2384L12.9267 33.9317C12.9099 33.9294 12.8932 33.9267 12.8767 33.9234C11.63 33.68 10.7883 33.2417 10.1717 32.61C9.65333 32.0784 9.33667 31.4417 9.06833 30.9017L8.975 30.7134C8.72699 30.1961 8.45617 29.69 8.16333 29.1967C7.93833 28.84 7.76333 28.6567 7.59 28.5417C7.15 28.25 6.72667 27.755 6.72667 27.1367C6.72516 26.9587 6.76326 26.7827 6.83821 26.6212C6.91316 26.4598 7.02308 26.3171 7.16 26.2034C7.41843 25.9988 7.7405 25.8914 8.07 25.9C8.44 25.9 8.78833 26.0134 9.07833 26.1434C9.375 26.2767 9.67 26.4534 9.945 26.6367C10.615 27.0834 11.275 27.6117 11.8333 28.2634C12.415 28.94 12.8267 29.37 13.4467 29.4584C13.9567 29.5317 14.4767 29.5334 14.8817 29.515C14.938 29.1944 15.0308 28.8812 15.1583 28.5817C14.6637 28.4663 14.1757 28.3238 13.6967 28.155C12.6067 27.7684 11.3917 27.1667 10.575 26.255C9.67833 25.2517 9.12333 24.3567 8.81333 23.31C8.51167 22.29 8.46167 21.185 8.46167 19.825C8.46167 17.7417 9.36333 15.9867 10.04 15.055C9.78002 14.2394 9.59317 13.4022 9.48167 12.5534C9.40782 12.0181 9.40838 11.4752 9.48333 10.94C9.56667 10.4517 9.775 9.85171 10.3233 9.49004C10.8517 9.13837 11.4717 9.15337 11.955 9.24337C12.4567 9.33837 12.9783 9.54671 13.4583 9.78504C14.24 10.1717 15.0167 10.6884 15.5983 11.1267C16.6017 10.8317 18.3767 10.4517 19.9817 10.4167H20.0183C21.625 10.4517 23.32 10.8317 24.2983 11.125C24.8817 10.6884 25.6567 10.17 26.4367 9.78504C26.9167 9.54671 27.4367 9.33837 27.94 9.24337C28.4233 9.15337 29.0433 9.13837 29.5733 9.48837C30.12 9.85171 30.33 10.4517 30.4117 10.94C30.4967 11.4484 30.4767 12.0167 30.4117 12.5534C30.3006 13.4021 30.1144 14.2393 29.855 15.055C30.5317 15.9884 31.4333 17.7434 31.4333 19.825C31.4333 21.185 31.3833 22.29 31.0833 23.3084C30.7717 24.3584 30.2167 25.2517 29.32 26.255C28.5033 27.1667 27.2883 27.7684 26.1983 28.155C25.6197 28.3584 25.0285 28.5238 24.4283 28.65C24.6333 29.27 24.7067 29.7717 24.7067 30.06V35.21C24.7067 35.9934 25.0717 36.6617 25.59 37.0517C26.0933 37.4334 26.74 37.5517 27.4033 37.2617C33.8033 34.4417 38.26 28.1 38.26 20.7117C38.26 10.7034 30.0933 2.57504 20 2.57504ZM15.7933 31.1834C15.36 31.245 15.7917 31.1834 15.7917 31.1834H15.7867L15.7733 31.1867L15.725 31.1934C15.4774 31.2225 15.229 31.243 14.98 31.255C14.51 31.2767 13.865 31.2784 13.2033 31.1834C11.885 30.9967 11.0833 30.0634 10.565 29.4567L10.515 29.4C10.3455 29.2034 10.1635 29.0181 9.97 28.845C10.1417 29.1617 10.32 29.515 10.5117 29.895L10.5283 29.9284L10.6133 30.1017C10.905 30.6817 11.0967 31.0684 11.415 31.3917C11.725 31.7084 12.2083 32.015 13.185 32.2084L16.175 32.6134C16.3838 32.6416 16.5753 32.7447 16.7139 32.9035C16.8524 33.0623 16.9286 33.266 16.9283 33.4767V35.1884C16.9283 36.5217 16.3033 37.71 15.345 38.43C14.8419 38.8145 14.2433 39.0543 13.6139 39.1236C12.9845 39.1929 12.3481 39.0891 11.7733 38.8234C4.83667 35.7117 0 28.7834 0 20.7134C0 9.72671 8.96167 0.833374 20 0.833374C31.0383 0.833374 40 9.72671 40 20.7134C40 28.825 35.1017 35.7717 28.105 38.8567C27.5298 39.1174 26.8945 39.2168 26.2671 39.1443C25.6398 39.0718 25.0439 38.8301 24.5433 38.445C24.0484 38.064 23.6484 37.5734 23.3749 37.0119C23.1013 36.4503 22.9616 35.833 22.9667 35.2084V30.0584C22.9667 29.9417 22.885 29.2684 22.43 28.3634C22.3672 28.2379 22.3356 28.0991 22.3378 27.9588C22.34 27.8185 22.3759 27.6808 22.4427 27.5573C22.5094 27.4339 22.6049 27.3283 22.721 27.2496C22.8372 27.1708 22.9706 27.1213 23.11 27.105C23.6817 27.0417 24.645 26.8567 25.6167 26.5117C26.6067 26.1617 27.495 25.6817 28.0233 25.0917C28.8083 24.215 29.2 23.5417 29.415 22.8134C29.6383 22.0584 29.695 21.18 29.695 19.825C29.695 17.9234 28.695 16.325 28.235 15.81C28.1306 15.6937 28.0594 15.5513 28.0289 15.398C27.9984 15.2446 28.0097 15.0859 28.0617 14.9384C28.295 14.2817 28.5783 13.26 28.6867 12.3484C28.74 11.89 28.7433 11.5067 28.6967 11.23C28.6862 11.1289 28.6556 11.0308 28.6067 10.9417C28.4919 10.9219 28.3743 10.927 28.2617 10.9567C27.9783 11.01 27.6167 11.1434 27.2067 11.3467C26.39 11.75 25.54 12.3467 25.0133 12.7734C24.8972 12.8676 24.7586 12.9302 24.6111 12.955C24.4637 12.9798 24.3123 12.9661 24.1717 12.915C22.8222 12.4736 21.4186 12.2196 20 12.16C18.3217 12.2 16.385 12.6767 15.7233 12.915C15.5827 12.9661 15.4313 12.9798 15.2839 12.955C15.1364 12.9302 14.9978 12.8676 14.8817 12.7734C14.2006 12.225 13.4657 11.747 12.6883 11.3467C12.3545 11.1714 11.9993 11.0403 11.6317 10.9567C11.5196 10.9272 11.4025 10.9221 11.2883 10.9417C11.2393 11.0308 11.2087 11.1289 11.1983 11.23C11.1517 11.5067 11.155 11.89 11.2083 12.3484C11.3167 13.26 11.6017 14.2817 11.8333 14.9384C11.9383 15.2384 11.8733 15.5717 11.66 15.81C11.2 16.325 10.2 17.9234 10.2 19.825C10.2 21.1784 10.2567 22.0584 10.48 22.8134C10.6967 23.5417 11.0867 24.2134 11.87 25.0917C12.4 25.6817 13.2867 26.1617 14.2783 26.5117C15.0896 26.7988 15.9295 26.9977 16.7833 27.105C16.959 27.1239 17.1248 27.1958 17.2586 27.3112C17.3924 27.4265 17.4879 27.5799 17.5324 27.7509C17.5769 27.9219 17.5683 28.1024 17.5078 28.2683C17.4472 28.4343 17.3375 28.5779 17.1933 28.68C16.9183 28.8767 16.7367 29.23 16.635 29.6384C16.5825 29.8486 16.5512 30.0636 16.5417 30.28V30.3117C16.5438 30.523 16.4691 30.7279 16.3314 30.8883C16.1938 31.0486 16.0025 31.1535 15.7933 31.1834V31.1834Z" fill="url(#paint0_linear_13:111)"/>
<defs>
<linearGradient id="paint0_linear_13:111" x1="1.77178" y1="35.0258" x2="50.017" y2="24.5994" gradientUnits="userSpaceOnUse">
<stop stop-color="#82A0D5"/>
<stop offset="0.0909091" stop-color="#7F88D9"/>
<stop offset="0.181818" stop-color="#8D7CDD"/>
<stop offset="0.272727" stop-color="#A779E1"/>
<stop offset="0.363636" stop-color="#C476E5"/>
<stop offset="0.454545" stop-color="#E573E9"/>
<stop offset="0.545455" stop-color="#ED70CF"/>
<stop offset="0.636364" stop-color="#F06EAE"/>
<stop offset="0.727273" stop-color="#F46B8A"/>
<stop offset="0.818182" stop-color="#F86E68"/>
<stop offset="0.909091" stop-color="#FB9366"/>
<stop offset="1" stop-color="#FFBC63"/>
</linearGradient>
</defs>
</svg>
