<svg width="40" height="40" viewBox="0 0 40 40" fill="none" xmlns="http://www.w3.org/2000/svg">
<g clip-path="url(#clip0_13:114)">
<path d="M24.3938 14.9401C23.5463 14.9401 22.9188 15.1538 22.4276 15.4238C22.3488 15.1438 22.0901 14.9388 21.7851 15.0001H18.0551C17.6863 14.9388 17.3876 15.2376 17.5013 15.6251V29.3751C17.3876 29.7251 17.6863 30.0251 18.0551 30.0001H21.7851C22.1538 30.0251 22.4526 29.7251 22.4526 29.3563L22.4513 21.0463C22.4501 21.0426 22.4363 20.6451 22.6876 20.3713C22.8888 20.1538 23.2351 20.0426 23.7138 20.0426C24.5113 20.0426 24.8663 20.3688 24.9988 21.0988V29.3563C24.8676 29.7251 25.1663 30.0251 25.5351 30.0001H29.4663C29.8351 30.0251 30.1338 29.7251 30.0013 29.3563V20.8213C30.1326 16.4813 27.0413 14.9401 24.3938 14.9401V14.9401ZM28.7976 28.7501H26.2026V21.0988C26.2026 19.6226 25.2488 18.7076 23.7151 18.7076C22.8476 18.7076 22.1726 18.9626 21.7076 19.4651C21.0613 20.1651 21.1113 21.0526 21.2501 21.2501V28.7501H18.7226V16.2751H21.1176V16.6951C21.1166 16.8202 21.1509 16.943 21.2166 17.0495C21.2824 17.156 21.3768 17.2418 21.489 17.297C21.6013 17.3522 21.7269 17.3746 21.8513 17.3617C21.9758 17.3488 22.0941 17.301 22.1926 17.2238L22.3676 17.0888C22.8738 16.6901 23.3976 16.2763 24.3951 16.2763C25.4276 16.2763 28.7988 16.6051 28.7988 20.8226V28.7501H28.7976Z" fill="url(#paint0_linear_13:114)"/>
<path d="M13.75 8.70752C12.3475 8.70752 11.2075 9.84752 11.2075 11.25C11.2075 12.6525 12.3475 13.7925 13.75 13.7925C15.1525 13.7925 16.2925 12.6525 16.2925 11.25C16.2925 9.84752 15.1525 8.70752 13.75 8.70752ZM13.75 12.4575C13.085 12.4575 12.5425 11.915 12.5425 11.25C12.5425 10.585 13.085 10.0425 13.75 10.0425C14.415 10.0425 14.9575 10.585 14.9575 11.25C14.9575 11.915 14.415 12.4575 13.75 12.4575Z" fill="url(#paint1_linear_13:114)"/>
<path d="M15.535 14.9387H11.825C11.4563 14.9387 11.1575 15.2375 11.25 15.625V29.375C11.1575 29.725 11.4563 30.025 11.825 30H15.535C15.9038 30.025 16.2025 29.725 16.2025 29.3562V15.6062C16.2025 15.4292 16.1322 15.2594 16.007 15.1342C15.8818 15.009 15.712 14.9387 15.535 14.9387ZM15 28.75H12.4925V16.275H15V28.75Z" fill="url(#paint2_linear_13:114)"/>
<path d="M20 -0.0424805C8.94752 -0.0424805 -0.0424805 8.94752 -0.0424805 20C-0.0424805 31.0525 8.94752 40.0425 20 40.0425C31.0525 40.0425 40.0425 31.0525 40.0425 20C40.0425 8.94752 31.0525 -0.0424805 20 -0.0424805ZM20 38.7075C9.68502 38.7075 1.29252 30.315 1.29252 20C1.29252 9.68502 9.68502 1.29252 20 1.29252C30.315 1.29252 38.7075 9.68502 38.7075 20C38.7075 30.315 30.315 38.7075 20 38.7075Z" fill="url(#paint3_linear_13:114)"/>
</g>
<defs>
<linearGradient id="paint0_linear_13:114" x1="18.033" y1="28.3743" x2="33.4262" y2="25.7164" gradientUnits="userSpaceOnUse">
<stop stop-color="#82A0D5"/>
<stop offset="0.0909091" stop-color="#7F88D9"/>
<stop offset="0.181818" stop-color="#8D7CDD"/>
<stop offset="0.272727" stop-color="#A779E1"/>
<stop offset="0.363636" stop-color="#C476E5"/>
<stop offset="0.454545" stop-color="#E573E9"/>
<stop offset="0.545455" stop-color="#ED70CF"/>
<stop offset="0.636364" stop-color="#F06EAE"/>
<stop offset="0.727273" stop-color="#F46B8A"/>
<stop offset="0.818182" stop-color="#F86E68"/>
<stop offset="0.909091" stop-color="#FB9366"/>
<stop offset="1" stop-color="#FFBC63"/>
</linearGradient>
<linearGradient id="paint1_linear_13:114" x1="11.4328" y1="13.2431" x2="17.5883" y2="11.9682" gradientUnits="userSpaceOnUse">
<stop stop-color="#82A0D5"/>
<stop offset="0.0909091" stop-color="#7F88D9"/>
<stop offset="0.181818" stop-color="#8D7CDD"/>
<stop offset="0.272727" stop-color="#A779E1"/>
<stop offset="0.363636" stop-color="#C476E5"/>
<stop offset="0.454545" stop-color="#E573E9"/>
<stop offset="0.545455" stop-color="#ED70CF"/>
<stop offset="0.636364" stop-color="#F06EAE"/>
<stop offset="0.727273" stop-color="#F46B8A"/>
<stop offset="0.818182" stop-color="#F86E68"/>
<stop offset="0.909091" stop-color="#FB9366"/>
<stop offset="1" stop-color="#FFBC63"/>
</linearGradient>
<linearGradient id="paint2_linear_13:114" x1="11.4532" y1="28.3741" x2="17.6978" y2="27.9474" gradientUnits="userSpaceOnUse">
<stop stop-color="#82A0D5"/>
<stop offset="0.0909091" stop-color="#7F88D9"/>
<stop offset="0.181818" stop-color="#8D7CDD"/>
<stop offset="0.272727" stop-color="#A779E1"/>
<stop offset="0.363636" stop-color="#C476E5"/>
<stop offset="0.454545" stop-color="#E573E9"/>
<stop offset="0.545455" stop-color="#ED70CF"/>
<stop offset="0.636364" stop-color="#F06EAE"/>
<stop offset="0.727273" stop-color="#F46B8A"/>
<stop offset="0.818182" stop-color="#F86E68"/>
<stop offset="0.909091" stop-color="#FB9366"/>
<stop offset="1" stop-color="#FFBC63"/>
</linearGradient>
<linearGradient id="paint3_linear_13:114" x1="1.73306" y1="35.7118" x2="50.2574" y2="25.6618" gradientUnits="userSpaceOnUse">
<stop stop-color="#82A0D5"/>
<stop offset="0.0909091" stop-color="#7F88D9"/>
<stop offset="0.181818" stop-color="#8D7CDD"/>
<stop offset="0.272727" stop-color="#A779E1"/>
<stop offset="0.363636" stop-color="#C476E5"/>
<stop offset="0.454545" stop-color="#E573E9"/>
<stop offset="0.545455" stop-color="#ED70CF"/>
<stop offset="0.636364" stop-color="#F06EAE"/>
<stop offset="0.727273" stop-color="#F46B8A"/>
<stop offset="0.818182" stop-color="#F86E68"/>
<stop offset="0.909091" stop-color="#FB9366"/>
<stop offset="1" stop-color="#FFBC63"/>
</linearGradient>
<clipPath id="clip0_13:114">
<rect width="40" height="40" fill="white"/>
</clipPath>
</defs>
</svg>
