<svg width="32" height="32" viewBox="0 0 32 32" fill="none" xmlns="http://www.w3.org/2000/svg">
<path d="M24.8934 24.8933L27.8534 23.4133V19.7066M18.9601 13.04L16.0001 14.52L18.9601 13.04ZM16.0001 14.52L13.0401 13.04L16.0001 14.52ZM16.0001 14.52V18.2266V14.52ZM27.8534 8.58663L24.8934 10.0666L27.8534 8.58663ZM27.8534 8.58663L24.8934 7.10663L27.8534 8.58663ZM27.8534 8.58663V12.2933V8.58663ZM18.9601 4.14663L16.0001 2.66663L13.0401 4.14663H18.9601ZM4.14673 8.58663L7.10673 7.10663L4.14673 8.58663ZM4.14673 8.58663L7.10673 10.0666L4.14673 8.58663ZM4.14673 8.58663V12.2933V8.58663ZM16.0001 29.3333L13.0401 27.8533L16.0001 29.3333ZM16.0001 29.3333L18.9601 27.8533L16.0001 29.3333ZM16.0001 29.3333V25.6266V29.3333ZM7.10673 24.8933L4.14673 23.4133V19.7066L7.10673 24.8933Z" stroke="url(#paint0_linear_16:158)" stroke-width="1.5" stroke-linecap="round" stroke-linejoin="round"/>
<defs>
<linearGradient id="paint0_linear_16:158" x1="5.1968" y1="26.4523" x2="34.1442" y2="21.1224" gradientUnits="userSpaceOnUse">
<stop stop-color="#82A0D5"/>
<stop offset="0.0909091" stop-color="#7F88D9"/>
<stop offset="0.181818" stop-color="#8D7CDD"/>
<stop offset="0.272727" stop-color="#A779E1"/>
<stop offset="0.363636" stop-color="#C476E5"/>
<stop offset="0.454545" stop-color="#E573E9"/>
<stop offset="0.545455" stop-color="#ED70CF"/>
<stop offset="0.636364" stop-color="#F06EAE"/>
<stop offset="0.727273" stop-color="#F46B8A"/>
<stop offset="0.818182" stop-color="#F86E68"/>
<stop offset="0.909091" stop-color="#FB9366"/>
<stop offset="1" stop-color="#FFBC63"/>
</linearGradient>
</defs>
</svg>
