<svg width="17" height="17" viewBox="0 0 17 17" fill="none" xmlns="http://www.w3.org/2000/svg">
<path d="M14.8751 8.14579C14.8751 11.8645 11.8647 14.875 8.14591 14.875C4.42716 14.875 1.41675 11.8645 1.41675 8.14579C1.41675 4.42704 4.42716 1.41663 8.14591 1.41663" stroke="url(#paint0_linear_12:77)" stroke-width="1.5" stroke-linecap="round" stroke-linejoin="round"/>
<path d="M15.5834 15.5833L14.1667 14.1666" stroke="url(#paint1_linear_12:77)" stroke-width="1.5" stroke-linecap="round" stroke-linejoin="round"/>
<path d="M10.2708 4.3421C10.0229 3.56293 10.3133 2.59252 11.1349 2.33043C11.567 2.18877 12.0983 2.30918 12.4029 2.7271C12.6862 2.29502 13.2387 2.19585 13.6637 2.33043C14.4854 2.59252 14.7758 3.56293 14.5279 4.3421C14.1383 5.58168 12.7783 6.22627 12.4029 6.22627C12.0204 6.22627 10.6745 5.59585 10.2708 4.3421Z" stroke="url(#paint2_linear_12:77)" stroke-width="1.5" stroke-linecap="round" stroke-linejoin="round"/>
<defs>
<linearGradient id="paint0_linear_12:77" x1="2.01288" y1="13.4209" x2="18.3047" y2="10.0467" gradientUnits="userSpaceOnUse">
<stop stop-color="#82A0D5"/>
<stop offset="0.0909091" stop-color="#7F88D9"/>
<stop offset="0.181818" stop-color="#8D7CDD"/>
<stop offset="0.272727" stop-color="#A779E1"/>
<stop offset="0.363636" stop-color="#C476E5"/>
<stop offset="0.454545" stop-color="#E573E9"/>
<stop offset="0.545455" stop-color="#ED70CF"/>
<stop offset="0.636364" stop-color="#F06EAE"/>
<stop offset="0.727273" stop-color="#F46B8A"/>
<stop offset="0.818182" stop-color="#F86E68"/>
<stop offset="0.909091" stop-color="#FB9366"/>
<stop offset="1" stop-color="#FFBC63"/>
</linearGradient>
<linearGradient id="paint1_linear_12:77" x1="14.2295" y1="15.4302" x2="15.9444" y2="15.0751" gradientUnits="userSpaceOnUse">
<stop stop-color="#82A0D5"/>
<stop offset="0.0909091" stop-color="#7F88D9"/>
<stop offset="0.181818" stop-color="#8D7CDD"/>
<stop offset="0.272727" stop-color="#A779E1"/>
<stop offset="0.363636" stop-color="#C476E5"/>
<stop offset="0.454545" stop-color="#E573E9"/>
<stop offset="0.545455" stop-color="#ED70CF"/>
<stop offset="0.636364" stop-color="#F06EAE"/>
<stop offset="0.727273" stop-color="#F46B8A"/>
<stop offset="0.818182" stop-color="#F86E68"/>
<stop offset="0.909091" stop-color="#FB9366"/>
<stop offset="1" stop-color="#FFBC63"/>
</linearGradient>
<linearGradient id="paint2_linear_12:77" x1="10.3812" y1="5.79924" x2="15.6864" y2="4.56817" gradientUnits="userSpaceOnUse">
<stop stop-color="#82A0D5"/>
<stop offset="0.0909091" stop-color="#7F88D9"/>
<stop offset="0.181818" stop-color="#8D7CDD"/>
<stop offset="0.272727" stop-color="#A779E1"/>
<stop offset="0.363636" stop-color="#C476E5"/>
<stop offset="0.454545" stop-color="#E573E9"/>
<stop offset="0.545455" stop-color="#ED70CF"/>
<stop offset="0.636364" stop-color="#F06EAE"/>
<stop offset="0.727273" stop-color="#F46B8A"/>
<stop offset="0.818182" stop-color="#F86E68"/>
<stop offset="0.909091" stop-color="#FB9366"/>
<stop offset="1" stop-color="#FFBC63"/>
</linearGradient>
</defs>
</svg>
